<?xml version="1.0" encoding="UTF-8"?>
<svg width="242px" height="242px" viewBox="0 0 242 242" version="1.1" xmlns="http://www.w3.org/2000/svg" xmlns:xlink="http://www.w3.org/1999/xlink">
    <!-- Generator: Sketch 63.1 (92452) - https://sketch.com -->
    <title>tab</title>
    <desc>Created with Sketch.</desc>
    <g id="Page-1" stroke="none" stroke-width="1" fill="none" fill-rule="evenodd">
        <g id="Artboard" transform="translate(-323.000000, -75.000000)" fill-rule="nonzero">
            <g id="tab" transform="translate(323.000000, 75.000000)">
                <path d="M211.750678,242 L30.2493223,242 C13.5447693,242 0,228.455231 0,211.750678 L0,30.2493223 C0,13.5447693 13.5447693,0 30.2493223,0 L211.750678,0 C228.455231,0 242,13.5447693 242,30.2493223 L242,211.750678 C242,228.455231 228.455231,242 211.750678,242 Z" id="Path" fill="#FFFFFF"></path>
                <g id="Group" transform="translate(47.000000, 68.000000)" fill="#000000">
                    <path d="M143.965748,45.4239217 L63.8487,45.4239217 L75.8514231,33.4269584 C78.8037132,30.476085 78.8037132,25.6809158 75.8514231,22.7300424 C72.9009424,19.7809771 68.1016621,19.7809771 65.1511809,22.7300424 L34.8775445,52.989151 L65.1511809,83.246452 C68.1016621,86.1955173 72.9009424,86.1955173 75.8514231,83.246452 C78.8037132,80.2955786 78.8037132,75.5004094 75.8514231,72.549536 L63.8487,60.5525722 L143.965748,60.5525722 C148.142732,60.5525722 151.532801,57.1641308 151.532801,52.989151 C151.532801,48.8123635 148.142732,45.4239217 143.965748,45.4239217 L143.965748,45.4239217 Z" id="Path"></path>
                    <path d="M7.73890767,105.940332 C3.56192339,105.940332 0.170046351,102.550082 0.170046351,98.3751025 L0.170046351,7.60139192 C0.170046351,3.42641251 3.56192339,0.0361626638 7.73890767,0.0361626638 C11.9158915,0.0361626638 15.307769,3.42641251 15.307769,7.60139192 L15.307769,98.3751025 C15.307769,102.550082 11.9158915,105.940332 7.73890767,105.940332 Z" id="Path"></path>
                </g>
            </g>
        </g>
    </g>
</svg>