<?xml version="1.0" encoding="UTF-8"?>
<svg width="242px" height="242px" viewBox="0 0 242 242" version="1.1" xmlns="http://www.w3.org/2000/svg" xmlns:xlink="http://www.w3.org/1999/xlink">
    <!-- Generator: Sketch 63.1 (92452) - https://sketch.com -->
    <title>tab</title>
    <desc>Created with Sketch.</desc>
    <g id="Page-1" stroke="none" stroke-width="1" fill="none" fill-rule="evenodd">
        <g id="Artboard" transform="translate(-323.000000, -75.000000)" fill-rule="nonzero">
            <g id="tab" transform="translate(323.000000, 75.000000)">
                <path d="M211.750678,242 L30.2493223,242 C13.5447693,242 0,228.455231 0,211.750678 L0,30.2493223 C0,13.5447693 13.5447693,0 30.2493223,0 L211.750678,0 C228.455231,0 242,13.5447693 242,30.2493223 L242,211.750678 C242,228.455231 228.455231,242 211.750678,242 Z" id="Path" fill="#FFFFFF"></path>
                <g id="Group" transform="translate(47.000000, 62.000000)" fill="#000000">
                    <path d="M143.965748,51.4239217 L63.8487,51.4239217 L75.8514231,39.4269584 C78.8037132,36.476085 78.8037132,31.6809158 75.8514231,28.7300424 C72.9009424,25.7809771 68.1016621,25.7809771 65.1511809,28.7300424 L34.8775445,58.989151 L65.1511809,89.246452 C68.1016621,92.1955173 72.9009424,92.1955173 75.8514231,89.246452 C78.8037132,86.2955786 78.8037132,81.5004094 75.8514231,78.549536 L63.8487,66.5525722 L143.965748,66.5525722 C148.142732,66.5525722 151.532801,63.1641308 151.532801,58.989151 C151.532801,54.8123635 148.142732,51.4239217 143.965748,51.4239217 L143.965748,51.4239217 Z" id="Path" transform="translate(93.205173, 58.988247) scale(-1, -1) rotate(-90.000000) translate(-93.205173, -58.988247) "></path>
                    <path d="M7.73890767,111.940332 C3.56192339,111.940332 0.170046351,108.550082 0.170046351,104.375102 L0.170046351,13.6013919 C0.170046351,9.42641251 3.56192339,6.03616266 7.73890767,6.03616266 C11.9158915,6.03616266 15.307769,9.42641251 15.307769,13.6013919 L15.307769,104.375102 C15.307769,108.550082 11.9158915,111.940332 7.73890767,111.940332 Z" id="Path"></path>
                </g>
            </g>
        </g>
    </g>
</svg>