<?xml version="1.0" encoding="UTF-8"?>
<svg width="242px" height="242px" viewBox="0 0 242 242" version="1.1" xmlns="http://www.w3.org/2000/svg" xmlns:xlink="http://www.w3.org/1999/xlink">
    <!-- Generator: Sketch 63.1 (92452) - https://sketch.com -->
    <title>tab</title>
    <desc>Created with Sketch.</desc>
    <g id="Page-1" stroke="none" stroke-width="1" fill="none" fill-rule="evenodd">
        <g id="Artboard" transform="translate(-323.000000, -75.000000)" fill-rule="nonzero">
            <g id="tab" transform="translate(323.000000, 75.000000)">
                <path d="M211.750678,242 L30.2493223,242 C13.5447693,242 0,228.455231 0,211.750678 L0,30.2493223 C0,13.5447693 13.5447693,0 30.2493223,0 L211.750678,0 C228.455231,0 242,13.5447693 242,30.2493223 L242,211.750678 C242,228.455231 228.455231,242 211.750678,242 Z" id="Path" fill="#FFFFFF"></path>
                <g id="Group" transform="translate(88.000000, 63.000000)" fill="#000000">
                    <path d="M84.0882038,50.9056783 L3.97115549,50.9056783 L15.9738786,38.9087149 C18.9261687,35.9578416 18.9261687,31.1626724 15.9738786,28.211799 C13.0233979,25.2627337 8.2241176,25.2627337 5.27363641,28.211799 L-25,58.4709076 L5.27363641,88.7282086 C8.2241176,91.6772739 13.0233979,91.6772739 15.9738786,88.7282086 C18.9261687,85.7773352 18.9261687,80.982166 15.9738786,78.0312926 L3.97115549,66.0343288 L84.0882038,66.0343288 C88.2651877,66.0343288 91.6552563,62.6458874 91.6552563,58.4709076 C91.6552563,54.2941201 88.2651877,50.9056783 84.0882038,50.9056783 L84.0882038,50.9056783 Z" id="Path" transform="translate(33.327628, 58.470004) scale(-1, 1) rotate(-90.000000) translate(-33.327628, -58.470004) "></path>
                </g>
            </g>
        </g>
    </g>
</svg>