<?xml version="1.0" encoding="UTF-8"?>
<svg width="242px" height="242px" viewBox="0 0 242 242" version="1.1" xmlns="http://www.w3.org/2000/svg" xmlns:xlink="http://www.w3.org/1999/xlink">
    <!-- Generator: Sketch 63.1 (92452) - https://sketch.com -->
    <title>tab</title>
    <desc>Created with Sketch.</desc>
    <g id="Page-1" stroke="none" stroke-width="1" fill="none" fill-rule="evenodd">
        <g id="Artboard" transform="translate(-323.000000, -75.000000)" fill-rule="nonzero">
            <g id="tab" transform="translate(323.000000, 75.000000)">
                <path d="M211.750678,242 L30.2493223,242 C13.5447693,242 0,228.455231 0,211.750678 L0,30.2493223 C0,13.5447693 13.5447693,0 30.2493223,0 L211.750678,0 C228.455231,0 242,13.5447693 242,30.2493223 L242,211.750678 C242,228.455231 228.455231,242 211.750678,242 Z" id="Path" fill="#FFFFFF"></path>
                <g id="Group" transform="translate(63.000000, 89.000000)" fill="#000000">
                    <path d="M109.088204,24.9056783 L28.9711555,24.9056783 L40.9738786,12.9087149 C43.9261687,9.95784159 43.9261687,5.16267237 40.9738786,2.21179901 C38.0233979,-0.737266336 33.2241176,-0.737266336 30.2736364,2.21179901 L0,32.4709076 L30.2736364,62.7282086 C33.2241176,65.6772739 38.0233979,65.6772739 40.9738786,62.7282086 C43.9261687,59.7773352 43.9261687,54.982166 40.9738786,52.0312926 L28.9711555,40.0343288 L109.088204,40.0343288 C113.265188,40.0343288 116.655256,36.6458874 116.655256,32.4709076 C116.655256,28.2941201 113.265188,24.9056783 109.088204,24.9056783 L109.088204,24.9056783 Z" id="Path" transform="translate(58.327628, 32.470004) scale(-1, -1) rotate(180.000000) translate(-58.327628, -32.470004) "></path>
                </g>
            </g>
        </g>
    </g>
</svg>