<svg height="512" viewBox="0 0 128 128" width="512" xmlns="http://www.w3.org/2000/svg"><g><g><path d="m103.81 111.55a9.97 9.97 0 0 1 -9.95 9.95h-59.72a9.95 9.95 0 0 1 0-19.9h5.32a9.955 9.955 0 0 1 0-19.91h5.33a9.95 9.95 0 1 1 0-19.9h5.45a19.475 19.475 0 0 1 4.55-3.5c6.23-3.61 13.72-5.03 17.09-15.29 9.94 3.16 12.65 11.73 11.94 18.81a9.943 9.943 0 0 1 6.97 16.38c-.17.2-.35.4-.54.59a9.923 9.923 0 0 1 -7.04 2.91h5.33a9.957 9.957 0 0 1 9.95 9.95 9.835 9.835 0 0 1 -2.39 6.46 7.126 7.126 0 0 1 -.53.58 9.925 9.925 0 0 1 -7.03 2.92h5.32a9.95 9.95 0 0 1 9.95 9.95z" fill="#663325"/><g fill="#51221c"><path d="m84.25 117.25h-9a1.75 1.75 0 0 1 0-3.5h9a1.75 1.75 0 0 1 0 3.5z"/><path d="m73 60.04a1.746 1.746 0 0 1 -1.75 1.75h-21.01a19.475 19.475 0 0 1 4.55-3.5h16.46a1.746 1.746 0 0 1 1.75 1.75z"/><path d="m57.92 79.94a1.752 1.752 0 0 1 -1.75 1.75h-11.38a9.924 9.924 0 0 1 -7.58-3.5h18.96a1.752 1.752 0 0 1 1.75 1.75z"/><path d="m90.79 78.19c-.17.2-.35.4-.54.59a9.923 9.923 0 0 1 -7.04 2.91h-7.33a1.75 1.75 0 1 1 0-3.5z"/><path d="m50.27 99.85a1.746 1.746 0 0 1 -1.75 1.75h-9.06a9.9 9.9 0 0 1 -7.56-3.5h16.62a1.746 1.746 0 0 1 1.75 1.75z"/><path d="m96.1 98.1a7.126 7.126 0 0 1 -.53.58 9.925 9.925 0 0 1 -7.03 2.92h-17.54a1.75 1.75 0 0 1 0-3.5z"/></g></g><g fill="#51221c"><path d="m41.489 31.75a1.75 1.75 0 0 1 -1.75-1.75 4.972 4.972 0 0 1 1.417-3.486c.424-.5.583-.685.583-1.218s-.159-.719-.583-1.218a4.994 4.994 0 0 1 0-6.97c.424-.5.583-.685.583-1.216s-.159-.716-.582-1.213a4.987 4.987 0 0 1 0-6.966c.423-.5.582-.684.582-1.213a1.75 1.75 0 0 1 3.5 0 4.958 4.958 0 0 1 -1.418 3.482c-.424.5-.582.684-.582 1.214s.158.716.582 1.213a4.989 4.989 0 0 1 0 6.967c-.425.5-.583.685-.583 1.217s.158.719.583 1.218a5 5 0 0 1 0 6.971c-.425.5-.583.685-.583 1.218a1.751 1.751 0 0 1 -1.749 1.75z"/><path d="m55.83 31.75a1.75 1.75 0 0 1 -1.75-1.75 4.972 4.972 0 0 1 1.42-3.486c.424-.5.583-.685.583-1.218s-.159-.719-.583-1.218a4.994 4.994 0 0 1 0-6.97c.424-.5.583-.685.583-1.216s-.159-.716-.582-1.213a4.987 4.987 0 0 1 0-6.966c.423-.5.582-.684.582-1.213a1.75 1.75 0 0 1 3.5 0 4.958 4.958 0 0 1 -1.418 3.482c-.424.5-.582.684-.582 1.214s.158.716.582 1.213a4.989 4.989 0 0 1 0 6.967c-.425.5-.583.685-.583 1.217s.158.719.583 1.218a5 5 0 0 1 0 6.971c-.425.5-.583.685-.583 1.218a1.751 1.751 0 0 1 -1.752 1.75z"/><path d="m70.17 31.75a1.751 1.751 0 0 1 -1.75-1.75 4.976 4.976 0 0 1 1.417-3.486c.425-.5.583-.685.583-1.218s-.158-.719-.583-1.218a4.993 4.993 0 0 1 0-6.97c.424-.5.582-.685.582-1.216s-.158-.716-.582-1.213a4.987 4.987 0 0 1 0-6.966c.424-.5.582-.684.582-1.213a1.75 1.75 0 0 1 3.5 0 4.958 4.958 0 0 1 -1.419 3.482c-.423.5-.582.684-.582 1.214s.159.716.582 1.213a4.989 4.989 0 0 1 0 6.967c-.424.5-.583.685-.583 1.217s.159.719.583 1.218a5 5 0 0 1 0 6.971c-.424.5-.583.685-.583 1.218a1.75 1.75 0 0 1 -1.747 1.75z"/><path d="m84.511 31.75a1.75 1.75 0 0 1 -1.75-1.75 4.972 4.972 0 0 1 1.417-3.486c.424-.5.583-.685.583-1.218s-.159-.719-.583-1.218a4.994 4.994 0 0 1 0-6.97c.424-.5.583-.685.583-1.216s-.159-.716-.582-1.213a4.987 4.987 0 0 1 0-6.966c.423-.5.582-.684.582-1.213a1.75 1.75 0 0 1 3.5 0 4.958 4.958 0 0 1 -1.418 3.482c-.424.5-.582.684-.582 1.214s.158.716.582 1.213a4.989 4.989 0 0 1 0 6.967c-.425.5-.583.685-.583 1.217s.158.719.583 1.218a5 5 0 0 1 0 6.971c-.425.5-.583.685-.583 1.218a1.751 1.751 0 0 1 -1.749 1.75z"/></g></g></svg>